/* XPM */
static char * frameIT_xpm[] = {
"2 3 4 1",
" 	c None",
".	c #85827E",
"+	c #F9F8F8",
"@	c #EBEAE9",
"..",
"++",
"@@"};
